<?xml version="1.0" encoding="UTF-8"?>
<svg xmlns="http://www.w3.org/2000/svg" viewBox="0 0 757 453">
  <defs>
    <style>
      .cls-1 {
        fill: #f28625;
      }

      .cls-2 {
        stroke: #000;
      }

      .cls-2, .cls-3 {
        fill: none;
      }

      .cls-4 {
        fill: #fff;
      }

      .cls-5 {
        letter-spacing: -.11em;
      }

      .cls-3 {
        stroke: #ccc;
      }

      .cls-6, .cls-7, .cls-8, .cls-9 {
        isolation: isolate;
      }

      .cls-10 {
        fill: #4bc0c0;
      }

      .cls-11 {
        letter-spacing: -.02em;
      }

      .cls-12 {
        fill: #d62728;
      }

      .cls-7 {
        fill: #7b7b7b;
      }

      .cls-7, .cls-8 {
        font-family: Arial-BoldMT, Arial;
        font-size: 12px;
        font-weight: 700;
      }

      .cls-13 {
        fill: #ffcd56;
      }

      .cls-9 {
        font-family: ArialMT, Arial;
        font-size: 10px;
      }
    </style>
  </defs>
  <g id="Fondo">
    <rect id="background" class="cls-4" width="757" height="453"/>
  </g>
  <g id="Capa_1" data-name="Capa 1">
    <g id="axis">
      <g>
        <path class="cls-2" d="M92.5,423v-5.5h640v5.5"/>
        <g>
          <line class="cls-2" x1="92.5" y1="417" x2="92.5" y2="423"/>
          <text class="cls-9" transform="translate(89.72 433.1)"><tspan x="0" y="0">0</tspan></text>
        </g>
        <g>
          <line class="cls-2" x1="163.61" y1="417" x2="163.61" y2="423"/>
          <text class="cls-9" transform="translate(158.05 433.1)"><tspan x="0" y="0">20</tspan></text>
        </g>
        <g>
          <line class="cls-2" x1="234.72" y1="417" x2="234.72" y2="423"/>
          <text class="cls-9" transform="translate(229.16 433.1)"><tspan x="0" y="0">40</tspan></text>
        </g>
        <g>
          <line class="cls-2" x1="305.83" y1="417" x2="305.83" y2="423"/>
          <text class="cls-9" transform="translate(300.27 433.1)"><tspan x="0" y="0">60</tspan></text>
        </g>
        <g>
          <line class="cls-2" x1="376.94" y1="417" x2="376.94" y2="423"/>
          <text class="cls-9" transform="translate(371.38 433.1)"><tspan x="0" y="0">80</tspan></text>
        </g>
        <g>
          <line class="cls-2" x1="448.06" y1="417" x2="448.06" y2="423"/>
          <text class="cls-9" transform="translate(439.71 433.1)"><tspan x="0" y="0">100</tspan></text>
        </g>
        <g>
          <line class="cls-2" x1="519.17" y1="417" x2="519.17" y2="423"/>
          <text class="cls-9" transform="translate(510.82 433.1)"><tspan x="0" y="0">120</tspan></text>
        </g>
        <g>
          <line class="cls-2" x1="590.28" y1="417" x2="590.28" y2="423"/>
          <text class="cls-9" transform="translate(581.94 433.1)"><tspan x="0" y="0">140</tspan></text>
        </g>
        <g>
          <line class="cls-2" x1="661.39" y1="417" x2="661.39" y2="423"/>
          <text class="cls-9" transform="translate(653.05 433.1)"><tspan x="0" y="0">160</tspan></text>
        </g>
        <g>
          <line class="cls-2" x1="732.5" y1="417" x2="732.5" y2="423"/>
          <text class="cls-9" transform="translate(724.16 433.1)"><tspan x="0" y="0">180</tspan></text>
        </g>
        <text class="cls-7" transform="translate(721.34 412)"><tspan x="0" y="0">id</tspan></text>
      </g>
      <g>
        <path class="cls-2" d="M92.5,77.5v340"/>
        <line class="cls-3" x1="92" y1="111.5" x2="732" y2="111.5"/>
        <line class="cls-3" x1="92" y1="179.5" x2="732" y2="179.5"/>
        <line class="cls-3" x1="92" y1="247.5" x2="732" y2="247.5"/>
        <line class="cls-3" x1="92" y1="315.5" x2="732" y2="315.5"/>
        <line class="cls-3" x1="92" y1="383.5" x2="732" y2="383.5"/>
        <text class="cls-7" transform="translate(96 87.29)"><tspan x="0" y="0">Enfoques </tspan></text>
      </g>
    </g>
    <g id="visualization">
      <g id="Otros_diseños" data-name="Otros diseños">
        <g id="circles">
          <circle class="cls-1" cx="97.98" cy="111" r="5.25"/>
          <circle class="cls-1" cx="110.48" cy="111" r="5.25"/>
          <circle class="cls-1" cx="124.7" cy="111" r="5.25"/>
          <circle class="cls-1" cx="174.18" cy="111" r="5.25"/>
          <circle class="cls-1" cx="186.68" cy="111" r="5.25"/>
          <circle class="cls-13" cx="199.18" cy="111" r="5.25"/>
          <circle class="cls-13" cx="211.67" cy="111" r="5.25"/>
          <circle class="cls-13" cx="224.17" cy="111" r="5.25"/>
          <circle class="cls-13" cx="236.67" cy="111" r="5.25"/>
          <circle class="cls-1" cx="249.17" cy="111" r="5.25"/>
          <circle class="cls-1" cx="261.67" cy="111" r="5.25"/>
          <circle class="cls-1" cx="274.17" cy="111" r="5.25"/>
          <circle class="cls-1" cx="286.67" cy="111" r="5.25"/>
          <circle class="cls-1" cx="310.9" cy="107.88" r="5.25"/>
          <circle class="cls-1" cx="318.19" cy="118.04" r="5.25"/>
          <circle class="cls-1" cx="323.74" cy="106.84" r="5.25"/>
          <circle class="cls-1" cx="335.21" cy="111.82" r="5.25"/>
          <circle class="cls-13" cx="347.63" cy="110.41" r="5.25"/>
          <circle class="cls-13" cx="379.19" cy="111" r="5.25"/>
          <circle class="cls-1" cx="391.69" cy="111" r="5.25"/>
          <circle class="cls-1" cx="429.86" cy="108.47" r="5.25"/>
          <circle class="cls-13" cx="438.87" cy="117.13" r="5.25"/>
          <circle class="cls-1" cx="441.86" cy="105" r="5.25"/>
          <circle class="cls-1" cx="450.88" cy="113.66" r="5.25"/>
          <circle class="cls-1" cx="462.72" cy="109.66" r="5.25"/>
          <circle class="cls-1" cx="473.12" cy="116.59" r="5.25"/>
          <circle class="cls-1" cx="479.24" cy="105.68" r="5.25"/>
          <circle class="cls-13" cx="490.13" cy="111.82" r="5.25"/>
          <circle class="cls-1" cx="516.08" cy="111" r="5.25"/>
          <circle class="cls-1" cx="528.58" cy="111" r="5.25"/>
          <circle class="cls-13" cx="560.21" cy="110.8" r="5.25"/>
          <circle class="cls-1" cx="572.69" cy="111.46" r="5.25"/>
          <circle class="cls-13" cx="585.17" cy="110.74" r="5.25"/>
          <circle class="cls-13" cx="603.21" cy="112.83" r="5.25"/>
          <circle class="cls-13" cx="612.82" cy="104.84" r="5.25"/>
          <circle class="cls-1" cx="614.93" cy="117.16" r="5.25"/>
          <circle class="cls-1" cx="624.55" cy="109.17" r="5.25"/>
          <circle class="cls-1" cx="638.17" cy="111.68" r="5.25"/>
          <circle class="cls-1" cx="650.47" cy="109.48" r="5.25"/>
          <circle class="cls-13" cx="661.07" cy="116.11" r="5.25"/>
          <circle class="cls-1" cx="668.3" cy="105.91" r="5.25"/>
          <circle class="cls-13" cx="675.52" cy="116.1" r="5.25"/>
          <circle class="cls-1" cx="680.74" cy="104.74" r="5.25"/>
          <circle class="cls-13" cx="690.14" cy="112.99" r="5.25"/>
        </g>
      </g>
      <g id="Gestión_y_Fabricación_Avanzada" data-name="Gestión y Fabricación Avanzada">
        <g id="circles-2" data-name="circles">
          <circle class="cls-10" cx="107.09" cy="179" r="5.25"/>
          <circle class="cls-10" cx="119.45" cy="174.8" r="5.25"/>
          <circle class="cls-10" cx="125.82" cy="185.56" r="5.25"/>
          <circle class="cls-10" cx="131.95" cy="174.67" r="5.25"/>
          <circle class="cls-10" cx="138.32" cy="185.43" r="5.25"/>
          <circle class="cls-10" cx="144.45" cy="174.54" r="5.25"/>
          <circle class="cls-10" cx="154.17" cy="183.09" r="5.25"/>
          <circle class="cls-10" cx="160.91" cy="172.57" r="5.25"/>
          <circle class="cls-10" cx="166.66" cy="183.67" r="5.25"/>
          <circle class="cls-10" cx="173.4" cy="173.14" r="5.25"/>
          <circle class="cls-10" cx="179.15" cy="184.24" r="5.25"/>
          <circle class="cls-10" cx="185.89" cy="173.72" r="5.25"/>
          <circle class="cls-10" cx="193.78" cy="183.41" r="5.25"/>
          <circle class="cls-10" cx="204.86" cy="177.64" r="5.25"/>
          <circle class="cls-10" cx="217.22" cy="179.53" r="5.25"/>
          <circle class="cls-10" cx="267.11" cy="179" r="5.25"/>
          <circle class="cls-10" cx="292.86" cy="179" r="5.25"/>
          <circle class="cls-10" cx="305.36" cy="179" r="5.25"/>
          <circle class="cls-10" cx="334.66" cy="179" r="5.25"/>
          <circle class="cls-10" cx="348.87" cy="179" r="5.25"/>
          <circle class="cls-10" cx="361.87" cy="178.41" r="5.25"/>
          <circle class="cls-10" cx="372.85" cy="184.39" r="5.25"/>
          <circle class="cls-10" cx="377.74" cy="172.88" r="5.25"/>
          <circle class="cls-10" cx="389.16" cy="177.95" r="5.25"/>
          <circle class="cls-10" cx="397.49" cy="187.28" r="5.25"/>
          <circle class="cls-10" cx="401.4" cy="175.4" r="5.25"/>
          <circle class="cls-10" cx="409.73" cy="184.73" r="5.25"/>
          <circle class="cls-10" cx="411.83" cy="168.52" r="5.25"/>
          <circle class="cls-10" cx="420.16" cy="177.84" r="5.25"/>
          <circle class="cls-10" cx="423.09" cy="189.99" r="5.25"/>
          <circle class="cls-10" cx="429.22" cy="169.23" r="5.25"/>
          <circle class="cls-10" cx="432.15" cy="181.38" r="5.25"/>
          <circle class="cls-10" cx="449.31" cy="179.05" r="5.25"/>
          <circle class="cls-10" cx="461.81" cy="178.94" r="5.25"/>
          <circle class="cls-10" cx="478.88" cy="179.85" r="5.25"/>
          <circle class="cls-10" cx="489.87" cy="173.9" r="5.25"/>
          <circle class="cls-10" cx="494.87" cy="185.35" r="5.25"/>
          <circle class="cls-10" cx="502.29" cy="175.29" r="5.25"/>
          <circle class="cls-10" cx="512.02" cy="183.15" r="5.25"/>
          <circle class="cls-10" cx="520.5" cy="173.97" r="5.25"/>
          <circle class="cls-10" cx="527.09" cy="184.59" r="5.25"/>
          <circle class="cls-10" cx="532.99" cy="173.57" r="5.25"/>
          <circle class="cls-10" cx="539.59" cy="184.19" r="5.25"/>
          <circle class="cls-10" cx="545.49" cy="173.17" r="5.25"/>
          <circle class="cls-10" cx="552.08" cy="183.79" r="5.25"/>
          <circle class="cls-10" cx="557.98" cy="172.77" r="5.25"/>
          <circle class="cls-10" cx="564.57" cy="183.39" r="5.25"/>
          <circle class="cls-10" cx="596.86" cy="179" r="5.25"/>
          <circle class="cls-10" cx="609.36" cy="179" r="5.25" transform="translate(335.06 751.82) rotate(-80.78)"/>
          <circle class="cls-10" cx="622.67" cy="179" r="5.25"/>
          <circle class="cls-10" cx="644" cy="179" r="5.25"/>
          <circle class="cls-10" cx="658.22" cy="179" r="5.25"/>
          <circle class="cls-10" cx="679.93" cy="180.74" r="5.25"/>
          <circle class="cls-10" cx="689.88" cy="173.17" r="5.25"/>
          <circle class="cls-10" cx="692.77" cy="185.34" r="5.25"/>
          <circle class="cls-10" cx="701.86" cy="176.75" r="5.25"/>
        </g>
      </g>
      <g id="Territorios_y_Ciudadanías" data-name="Territorios y Ciudadanías">
        <g id="circles-3" data-name="circles">
          <circle class="cls-10" cx="113.31" cy="247" r="5.25"/>
          <circle class="cls-10" cx="125.81" cy="247" r="5.25"/>
          <circle class="cls-1" cx="174.18" cy="247" r="5.25"/>
          <circle class="cls-13" cx="262.91" cy="247" r="5.25"/>
          <circle class="cls-10" cx="275.41" cy="247" r="5.25"/>
          <circle class="cls-10" cx="288.19" cy="247" r="5.25"/>
          <circle class="cls-13" cx="342.64" cy="247" r="5.25"/>
          <circle class="cls-13" cx="355.14" cy="247" r="5.25"/>
          <circle class="cls-13" cx="398.67" cy="247" r="5.25"/>
          <circle class="cls-13" cx="461.75" cy="247" r="5.25"/>
          <circle class="cls-13" cx="474.25" cy="247" r="5.25"/>
          <circle class="cls-13" cx="495.53" cy="247" r="5.25"/>
          <circle class="cls-13" cx="508.03" cy="247" r="5.25"/>
          <circle class="cls-1" cx="530.22" cy="247" r="5.25"/>
          <circle class="cls-13" cx="558.65" cy="247" r="5.25"/>
          <circle class="cls-13" cx="576.42" cy="250.6" r="5.25"/>
          <circle class="cls-13" cx="584.46" cy="241.03" r="5.25"/>
          <circle class="cls-1" cx="590.85" cy="251.77" r="5.25"/>
          <circle class="cls-13" cx="596.96" cy="240.87" r="5.25"/>
          <circle class="cls-13" cx="604.64" cy="250.73" r="5.25"/>
          <circle class="cls-13" cx="621.77" cy="246.99" r="5.25"/>
          <circle class="cls-13" cx="634.27" cy="247.01" r="5.25"/>
          <circle class="cls-1" cx="651.11" cy="247" r="5.25"/>
          <circle class="cls-13" cx="672.44" cy="247" r="5.25"/>
          <circle class="cls-13" cx="700.89" cy="247" r="5.25"/>
        </g>
      </g>
      <g id="Gestión_Estratégica_y_Sistemas_Complejos" data-name="Gestión Estratégica y Sistemas Complejos">
        <g id="circles-4" data-name="circles">
          <circle class="cls-13" cx="142.67" cy="315" r="5.25"/>
          <circle class="cls-1" cx="215.41" cy="314.23" r="5.25"/>
          <circle class="cls-1" cx="226.59" cy="319.82" r="5.25"/>
          <circle class="cls-10" cx="231.42" cy="308.98" r="5.25"/>
          <circle class="cls-10" cx="238.93" cy="317.82" r="5.25"/>
          <circle class="cls-10" cx="256.42" cy="315" r="5.25"/>
          <circle class="cls-13" cx="288.44" cy="315" r="5.25"/>
          <circle class="cls-1" cx="309.78" cy="315" r="5.25"/>
          <circle class="cls-10" cx="322.57" cy="315" r="5.25"/>
          <circle class="cls-13" cx="335.06" cy="315" r="5.25"/>
          <circle class="cls-1" cx="347.56" cy="315" r="5.25"/>
          <circle class="cls-13" cx="360.06" cy="315" r="5.25"/>
          <circle class="cls-12" cx="372.56" cy="315" r="5.25"/>
          <circle class="cls-13" cx="385.06" cy="315" r="5.25"/>
          <circle class="cls-13" cx="397.49" cy="315" r="5.25"/>
          <circle class="cls-13" cx="427.11" cy="315" r="5.25"/>
          <circle class="cls-13" cx="455.56" cy="315" r="5.25"/>
          <circle class="cls-1" cx="484" cy="315" r="5.25"/>
          <circle class="cls-1" cx="516" cy="315" r="5.25"/>
          <circle class="cls-13" cx="583.56" cy="315" r="5.25"/>
          <circle class="cls-13" cx="628.86" cy="315" r="5.25"/>
          <circle class="cls-1" cx="641.36" cy="315" r="5.25"/>
          <circle class="cls-13" cx="654.67" cy="315" r="5.25"/>
          <circle class="cls-1" cx="710.64" cy="315" r="5.25"/>
          <circle class="cls-1" cx="723.14" cy="315" r="5.25"/>
        </g>
      </g>
      <g id="Lenguajes_Visuales_y_Narrativas" data-name="Lenguajes Visuales y Narrativas">
        <g id="circles-5" data-name="circles">
          <circle class="cls-13" cx="141.69" cy="380.74" r="5.25"/>
          <circle class="cls-13" cx="150.75" cy="389.35" r="5.25"/>
          <circle class="cls-13" cx="153.68" cy="377.2" r="5.25"/>
          <circle class="cls-1" cx="163.61" cy="384.84" r="5.25"/>
          <circle class="cls-13" cx="193.31" cy="383" r="5.25"/>
          <circle class="cls-1" cx="205.81" cy="383" r="5.25"/>
          <circle class="cls-1" cx="220.89" cy="383" r="5.25"/>
          <circle class="cls-1" cx="236.84" cy="383.11" r="5.25"/>
          <circle class="cls-1" cx="249.33" cy="382.78" r="5.25"/>
          <circle class="cls-1" cx="261.83" cy="383.11" r="5.25"/>
          <circle class="cls-1" cx="274.82" cy="383" r="5.25"/>
          <circle class="cls-13" cx="287.32" cy="383" r="5.25"/>
          <circle class="cls-1" cx="299.82" cy="383" r="5.25"/>
          <circle class="cls-1" cx="312.32" cy="383" r="5.25"/>
          <circle class="cls-1" cx="324.82" cy="383" r="5.25"/>
          <circle class="cls-1" cx="370.22" cy="383" r="5.25"/>
          <circle class="cls-1" cx="448.44" cy="383" r="5.25"/>
          <circle class="cls-13" cx="508.89" cy="383" r="5.25"/>
          <circle class="cls-13" cx="559.53" cy="383" r="5.25"/>
          <circle class="cls-1" cx="572.03" cy="383" r="5.25"/>
          <circle class="cls-13" cx="668.89" cy="383" r="5.25"/>
          <circle class="cls-1" cx="700.61" cy="380.29" r="5.25"/>
          <circle class="cls-1" cx="708.67" cy="389.85" r="5.25"/>
          <circle class="cls-1" cx="712.91" cy="378.09" r="5.25"/>
          <circle class="cls-1" cx="724.04" cy="383.78" r="5.25"/>
        </g>
      </g>
    </g>
    <g>
      <rect class="cls-13" x="91.84" y="36.58" width="15" height="15"/>
      <g class="cls-6">
        <text class="cls-9" transform="translate(111.84 49.08)"><tspan x="0" y="0">Ambas</tspan></text>
      </g>
    </g>
    <g>
      <rect class="cls-10" x="183.64" y="36.58" width="15" height="15"/>
      <g class="cls-6">
        <text class="cls-9" transform="translate(203.93 49.08)"><tspan x="0" y="0">I y S</tspan></text>
      </g>
    </g>
    <g>
      <rect class="cls-1" x="273.16" y="36.58" width="15" height="15"/>
      <g class="cls-6">
        <text class="cls-9" transform="translate(293.19 49.08)"><tspan x="0" y="0">V y M</tspan></text>
      </g>
    </g>
    <g>
      <rect class="cls-12" x="361.79" y="36.58" width="15" height="15"/>
      <g class="cls-6">
        <text class="cls-9" transform="translate(381.79 49.08)"><tspan x="0" y="0">—</tspan></text>
      </g>
    </g>
    <g class="cls-6">
      <text class="cls-8" transform="translate(90.14 26.22)"><tspan x="0" y="0">Menciones</tspan></text>
    </g>
  </g>
  <g id="Capa_2" data-name="Capa 2">
    <text class="cls-9" transform="translate(21.31 114.7)"><tspan x="0" y="0">Otros diseños</tspan></text>
    <text class="cls-9" transform="translate(21.79 169.23)"><tspan x="0" y="0">Gestión y </tspan><tspan x="0" y="12">Fabricación </tspan><tspan class="cls-11" x="0" y="24">A</tspan><tspan x="6.49" y="24">vanzada</tspan></text>
    <text class="cls-9" transform="translate(21.77 243.42)"><tspan class="cls-5" x="0" y="0">T</tspan><tspan x="5" y="0">erritorios y </tspan><tspan x="0" y="12">Ciudadanías</tspan></text>
    <text class="cls-9" transform="translate(21.77 297.66)"><tspan x="0" y="0">Gestión </tspan><tspan x="0" y="12">Estratégica y </tspan><tspan x="0" y="24">Sistemas </tspan><tspan x="0" y="36">Complejos</tspan></text>
    <text class="cls-9" transform="translate(22.61 372.84)"><tspan x="0" y="0">Lenguajes </tspan><tspan class="cls-11" x="0" y="12">V</tspan><tspan x="6.49" y="12">isuales y </tspan><tspan x="0" y="24">Narrativas</tspan></text>
  </g>
</svg>